<svg xmlns="http://www.w3.org/2000/svg" width="36.001" height="36.001" viewBox="0 0 36.001 36.001">
  <path id="Icon_awesome-pencil-ruler" data-name="Icon awesome-pencil-ruler" d="M7.7,17.159,17.159,7.7l-3.1-3.1L9.72,8.933a.557.557,0,0,1-.788,0l-.788-.788a.557.557,0,0,1,0-.788L12.48,3.019,10.115.653a2.23,2.23,0,0,0-3.154,0L.653,6.961a2.231,2.231,0,0,0,0,3.154L7.7,17.159ZM35.011,8.947a3.378,3.378,0,0,0,0-4.776L31.829.989a3.379,3.379,0,0,0-4.778,0L23.816,4.224l7.959,7.959ZM22.224,5.816,1.342,26.7.023,34.25a1.493,1.493,0,0,0,1.729,1.727l7.555-1.325L30.184,13.774ZM35.347,25.885,32.981,23.52l-4.337,4.337a.557.557,0,0,1-.788,0l-.788-.788a.558.558,0,0,1,0-.788l4.337-4.337-3.1-3.1L18.839,28.3l7.046,7.045a2.23,2.23,0,0,0,3.154,0l6.308-6.307a2.23,2.23,0,0,0,0-3.154Z" transform="translate(0 0.001)" fill="#333"/>
</svg>
